<svg xmlns="http://www.w3.org/2000/svg" viewBox="0 0 1774.06 330.89"><defs><style>.cls-1{fill:#125d98;}.cls-2{fill:#18619a;}.cls-3{fill:#030303;}.cls-4{fill:#145e98;}.cls-5{fill:#040404;}.cls-6{fill:#020202;}.cls-7{fill:#135d98;}.cls-8{fill:#050505;}.cls-9{fill:#17609a;}.cls-10{fill:#135e98;}.cls-11{fill:#155f99;}.cls-12{fill:#fff;}.cls-13{fill:#165f99;}</style></defs><g id="Layer_2" data-name="Layer 2"><g id="Layer_1-2" data-name="Layer 1"><path class="cls-1" d="M38.27,330.89A31,31,0,0,0,34,329.08,45.54,45.54,0,0,1,0,284.79Q0,165.12,0,45.47A45.48,45.48,0,0,1,45.44,0H285.83c24.79,0,45.56,20,45.62,44.89q.3,120.15,0,240.3c0,22.72-16.7,41.33-39.39,44.88a5.94,5.94,0,0,0-1.61.81h-2a22.6,22.6,0,0,0-4.58-.94q-119.09-.06-238.16,0a22.19,22.19,0,0,0-4.55.94ZM154,145.65c-3.41-10.46-11.11-12.57-20.29-12.57-9,0-16.2,3.31-22.14,11.7V134H78.8v6c6,.1,8.53,3.77,8.58,9.14.14,17,.09,33.91.05,50.87,0,3.89-1.89,6.41-5.9,7.28-1.14.24-2.12,1.2-3.18,1.83l.54,1h40c-1.34-1.47-1.84-2.55-2.59-2.76-3.57-1-4.38-3.81-4.4-6.83q-.15-24,0-47.93a12.2,12.2,0,0,1,6.82-11.11c6.45-3.48,11.71-.75,11.8,6.51.2,17.45.07,34.9,0,52.34,0,3.09-.84,5.76-4.25,7-.85.3-1.36,1.52-2.45,2.81h38.87c-.47-1.16-.66-2.38-1-2.44-7-1.11-6.77-6.46-6.79-11.58,0-13.53-.33-27.08.2-40.59.15-3.9,2.21-8.05,4.39-11.46s6.19-4.78,10.41-3.53,5,4.89,5,8.59c.05,17,0,33.91-.09,50.86,0,3.46-.73,6.49-4.79,7.52-.59.15-.85,1.56-1.43,2.73h40.24c-1-1.36-1.54-2.68-2.16-2.74-6.62-.66-7.52-5.18-7.49-10.51.06-8.16.14-16.31,0-24.46-.16-8.62-.24-17.27-1-25.85-.61-6.9-5.12-11-11.77-12.76C174.05,130.58,162.64,134.54,154,145.65Zm100.33,63c1.85.66,3,1.14,4.28,1.52,15.61,4.83,32.23-1.23,39-15.13a55.93,55.93,0,0,0,1.88-46c-7.06-18.15-29.62-21.81-43.07-7.66-.47.49-1.06.86-2.25,1.82V134c-10.29,0-20.21,0-30.12.07-.81,0-1.6,1-2.39,1.54.61.58,1.13,1.52,1.84,1.67,4.46,1,6,4.16,6.44,8.17a45.62,45.62,0,0,1,.46,5.34q0,36,0,71.9c0,1.46-.25,2.91-.37,4.37-.31,3.69-2.1,6-5.89,6.77-.85.17-1.57,1.05-2.36,1.6,1,.51,1.91,1.44,2.87,1.46,6.37.13,12.75.06,19.12.06h23.41l.48-1.71a22.47,22.47,0,0,0-3.71-1.49c-7.16-1.52-9.38-4-9.62-11.32C254.21,218,254.33,213.6,254.33,208.63ZM50.06,137.06c4.65,0,8.86.1,13.06-.07.92,0,1.81-1.06,2.71-1.63-.9-.42-1.78-1.16-2.69-1.19-4.33-.13-8.66-.06-13.29-.06V111.05l-23.92,5.42v17.65c-3.53,0-6.6-.09-9.66.07-.7,0-1.35.92-2,1.42.68.48,1.35,1.35,2.06,1.38,3.06.16,6.13.07,9.63.07,0,2.39,0,4.3,0,6.22.17,17.09.28,34.19.56,51.28.1,5.82,2.14,10.83,7.34,14.09C44,215,58.6,211.71,64.9,201.51c.76-1.23.6-3,.88-4.57a22.74,22.74,0,0,1-3.72,2.25c-2.88,1.1-6,3-8.71,2.5-1.48-.26-3.11-4.63-3.15-7.17C49.94,175.63,50.06,156.73,50.06,137.06Z"/><path class="cls-1" d="M41.22,330.89a22.19,22.19,0,0,1,4.55-.94q119.08-.06,238.16,0a22.6,22.6,0,0,1,4.58.94Z"/><path d="M1073.05,35.25q-345.61,0-691.23,0c-3.83,0-8.78,1-8.77-4.89s5-4.87,8.8-4.87H1765.29c3.82,0,8.78-1,8.77,4.9s-5,4.86-8.8,4.86Q1419.15,35.26,1073.05,35.25Z"/><path d="M1074.06,297.61q345.62,0,691.23,0c3.83,0,8.78-1,8.77,4.9s-5,4.86-8.8,4.86q-691.73,0-1383.44,0c-3.83,0-8.79,1-8.77-4.9s5-4.86,8.8-4.86Q728,297.59,1074.06,297.61Z"/><path class="cls-2" d="M770.21,114.8a9.87,9.87,0,0,0-.28,1.77c.08,26.57.12,53.15.31,79.73.07,9.39,3,15.42,13.31,15.64,1,0,2,1.4,2.94,2.15l-.65,1.07H754.13l-.7-1c.93-.81,1.79-2.24,2.8-2.34,6.44-.68,8.25-5.2,9-10.52a76.08,76.08,0,0,0,.61-10.24c0-26.09-.07-52.18-.29-78.27-.06-7-1.48-8.17-8.55-9.44-1.26-.23-2.38-1.2-3.57-1.83l.6-1.71h31.73c12.36,0,12.33,0,17.23,11.4,8.81,20.49,17.64,41,26.84,62.32,2.27-5.83,4.3-11,6.28-16.12,6.89-17.92,13.82-35.82,20.56-53.8,1.08-2.85,2.4-4,5.58-3.89,12.08.21,24.16.09,36.24.09l.79,1.31c-1,.75-2,2.12-3,2.15-7.4.2-9.19,4.18-9.2,10.6q-.06,43.54,0,87.09c0,8,1.46,9.33,9.33,10.93,1.09.22,2,1.37,3,2.09l-.63,1.12H844.43c-.25-.41-.5-.83-.74-1.25,1.2-.7,2.34-1.85,3.62-2,7.57-1.12,9.39-2.7,9.42-10.3.13-27.56.06-55.12,0-82.68,0-.26-.22-.51-.68-1.5-3.86,9.82-7.54,19.1-11.17,28.4-8.57,22-17.1,44-25.76,65.92-.56,1.42-2.08,2.46-3.15,3.67-.93-1.18-2.17-2.24-2.75-3.57q-20.06-46.11-40-92.28c-.69-1.61-1.45-3.2-2.17-4.8Z"/><path class="cls-3" d="M500.42,89.41l37.33-1.91v53.57c5.25-6.22,11.44-10.42,19.36-11.32a56.25,56.25,0,0,1,14.14-.1c9.44,1.34,14.89,6.64,15.5,16.15.85,13.32.67,26.71.89,40.08.09,5.54,0,11.09.12,16.63.08,4.9,1.71,8.55,7.27,9.37,1.05.15,1.92,1.53,2.21,3.32H551.78c1.35-1.61,2-3.19,2.93-3.35,4.26-.77,5.64-3.6,5.76-7.34.21-6.18.3-12.38.32-18.57,0-12.24.07-24.47,0-36.71,0-7.75-2-11-6.77-11.93-6.06-1.11-13.09,3-15,9.17a24.62,24.62,0,0,0-1,7.21q-.12,22.75,0,45.52c0,5.49-.66,11.58,7.16,12.87.35.06.75.65.85,1.06a9.83,9.83,0,0,1,0,2.06h-44.2l-.8-1c1-.81,2-2.18,3.07-2.35,4.57-.66,6.37-3.59,6.88-7.66a51.72,51.72,0,0,0,.29-6.35q0-44.29,0-88.6c0-3.39.07-7.06-1.14-10.1-1-2.47-3.85-4.22-5.91-6.25C503.13,91.82,502,90.86,500.42,89.41Z"/><path class="cls-3" d="M1720.62,215.17H1676.5l-.83-1c1-.83,1.89-2.24,3-2.39,4.55-.65,6.41-3.52,6.94-7.61a45.82,45.82,0,0,0,.29-5.86q0-44.79,0-89.57a65.73,65.73,0,0,0-.8-8.73c-.52-3.91-2.43-6.55-6.63-7.41-1.12-.22-2-1.84-3.35-3.26l37.25-1.86v54.6c2.62-2.8,4.36-5.05,6.48-6.87,7.9-6.82,25.23-8.29,34.38-3.15a15.8,15.8,0,0,1,8.18,13.14c.64,7.78.78,15.62.89,23.43.16,11.42.07,22.84.18,34.26,0,4.75,1.89,8.13,7.16,8.93,1.08.16,2,1.51,3,2.3l-.65,1h-45.38c1.22-1.55,1.85-3.16,2.74-3.31,4.54-.78,5.79-3.9,5.87-7.77.18-9,.24-17.93.28-26.9,0-9.3.07-18.6,0-27.9-.07-8-2.13-11.34-7.19-12.05a14,14,0,0,0-14.62,9.15,24.3,24.3,0,0,0-1,7.21q-.12,23,0,46c0,5.37-.43,11.21,7.1,12.43.36,0,.79.61.89,1A9.57,9.57,0,0,1,1720.62,215.17Z"/><path class="cls-4" d="M1025.59,89.4l37.17-1.92v4.73q0,52.37,0,104.72c0,3.06.08,6.39,1.26,9.1,1,2.22,3.58,3.77,5.56,5.51a31.23,31.23,0,0,0,3.43,2.32l-.66,1.69h-36.09V205.9c-12.95,18.54-45.36,11.92-51.87-12.9-3.24-12.36-3.81-24.83-.67-37.21,5.85-23,29.47-33.3,51-22.46a1.28,1.28,0,0,0,.67,0c0-10.68.14-21.37-.07-32-.09-4.42-2.08-7.75-7-8.72C1027.38,92.39,1026.69,90.72,1025.59,89.4Zm10.52,79.25c0-9,.2-17.94-.16-26.89a8.07,8.07,0,0,0-3.4-5.63c-7.56-4.59-15.54-1.13-18.83,9-5.83,17.95-5.51,36.26-.62,54.39,1.77,6.54,6.61,9.57,11.82,8.8a12.52,12.52,0,0,0,11.17-12.75C1036.18,186.58,1036.11,177.62,1036.11,168.65Z"/><path class="cls-4" d="M1144.35,133.49c0-10.91.15-21.63-.07-32.34-.08-4.19-2-7.45-6.67-8.48-1.1-.24-1.9-1.84-3.3-3.28l37.38-1.88v4.86q0,52.35,0,104.72c0,2.9,0,6.1,1.17,8.61,1.11,2.35,3.75,4,5.8,5.88,1,.92,2.19,1.64,3.29,2.46-.24.52-.48,1.05-.71,1.58h-36v-8.81c-.65,0-1.11-.11-1.19,0-9.06,15.27-37.21,11.5-46.39-4.21-6-10.32-7.32-21.51-6.87-33a61.65,61.65,0,0,1,2.94-17.24C1100.93,131.5,1123.49,123.22,1144.35,133.49Zm.68,35.22c0-9,.2-17.94-.15-26.89a8.08,8.08,0,0,0-3.35-5.66c-7.53-4.62-15.59-1.17-18.86,8.89-5.84,17.95-5.58,36.27-.66,54.4,1.83,6.75,6.86,9.79,12.26,8.78,6.69-1.25,10.7-6.08,10.75-13.11C1145.08,186.31,1145,177.51,1145,168.71Z"/><path class="cls-5" d="M1441.58,169.54c0,11.4-.22,22.3.09,33.18.15,5.59,3,8.06,8.63,8.72,2.11.25,4.29.1,6.33.58,1.16.27,2.11,1.44,3.16,2.21l-.74,1.3h-59.31c-1-2.27-.66-3.4,2.49-3.75,7.32-.82,8.9-2.5,8.94-10.06q.18-44,0-88c0-7.62-1.44-8.79-9.32-10.4-1.1-.22-2-1.34-3-2,.21-.46.42-.92.62-1.38,1.58,0,3.16,0,4.74,0,20.9.31,41.81.31,62.7,1.08a35.54,35.54,0,0,1,22.67,9.29c16.85,15.18,11.77,42.84-9.67,53.26-10.58,5.14-21.9,6-33.39,6.06Zm0-3.81c15.09.8,21.75-3,24.88-14.75a67.31,67.31,0,0,0-.4-36.14c-1.4-4.93-4.2-9.18-9.3-10.55-8.79-2.35-15.09-1.31-15.14,7.41C1441.47,129.59,1441.54,147.48,1441.54,165.73Z"/><path class="cls-6" d="M465,215.52H398.89c1.43-1.7,2.18-2.67,3-3.55.16-.17.63,0,1,0,10.95-.55,15.05-.28,15-16.57q-.09-43.06,0-86.12v-5.75c-8.82-.58-15.46,2.64-20.62,9.22-6,7.63-8.61,16.68-11.25,25.77-.42,1.45-1.95,2.59-3,3.87l-1.66-.8V100.06h102.9v41.08c-2.84,1.34-3.79.48-4.78-2.36-2.78-7.94-5.41-16.06-9.36-23.43-4.46-8.32-12.12-12.41-22.49-11.9v93c.09,12.23,2.13,14.38,14.26,15.54,1.41.14,2.72,1.26,4.07,1.92C465.64,214.44,465.3,215,465,215.52Z"/><path class="cls-3" d="M1594.11,207.3c1.47,1.29,1.48,2.74-1.2,4.17-8.35,4.46-17.14,5.1-26.11,2.77-4.75-1.23-6.84-5.2-8-10.07a13.93,13.93,0,0,0-2.25,1.79c-7.17,8.94-16.87,10.63-27.4,9-7.91-1.19-12.69-6.24-14.42-14-1.82-8.16-.22-15.73,6.92-20.38,5.91-3.86,12.68-6.6,19.36-9,17.39-6.32,17.46-6.14,17.26-24.43,0-5.21-.7-10.37-5.91-13s-10.7-1.72-16.23,1.46c5,2.94,9.35,6,9.59,12.21.25,6.77-2.39,10.88-8.69,13s-12.71.55-15.91-4c-3.5-5-3.78-12.68.39-16.79a33.71,33.71,0,0,1,11.61-7.71c11.45-4.17,23.41-4.32,35.24-1.66,10.72,2.42,16.08,9,16.34,20.19.36,15.32.19,30.65.25,46a40.73,40.73,0,0,0,.07,6.35c.32,2,.77,4.94,2,5.5C1588.64,209.38,1591.1,208,1594.11,207.3Zm-35.79-39.58c-3.92,3.11-7.39,5.75-10.73,8.54-6.3,5.28-8.79,14.53-5.93,21.65a8.9,8.9,0,0,0,9.84,5.51c4.47-.74,6.81-3.62,6.82-8.4C1558.33,186.08,1558.32,177.15,1558.32,167.72Z"/><path class="cls-7" d="M1196,215.08c1.65-1.64,2.33-2.89,3.32-3.21,6.48-2.15,7.63-3.52,7.69-10.47.06-7.5,0-15,0-22.51q0-36,0-71.94a43.33,43.33,0,0,0-.69-7.27c-.62-3.67-2.5-6.17-6.5-7-1.15-.23-2-1.94-3.31-3.32l37.19-1.78v4.63q0,51.63,0,103.27c0,3.09.29,6.18.59,9.26.38,3.82,2.28,6.27,6.32,7,1.29.22,2.43,1.32,3.63,2l-.61,1.35Z"/><path class="cls-8" d="M685.68,164H642.1c-.72,8.81-.65,17.09,2.86,24.84,6.15,13.58,23.44,15.87,33.76,4.63a23.18,23.18,0,0,1,2.21-2.59,18.22,18.22,0,0,1,3-1.61c.15,1.26.75,2.66.38,3.74-5.46,15.85-19.18,24.44-37.05,23.33-16-1-28.53-11.78-31.9-27.63a71,71,0,0,1-.12-29.57c3.66-17.42,17.83-29.32,35.71-29.89a55.43,55.43,0,0,1,11.24.4C678.77,132.52,687.08,144.63,685.68,164Zm-44.57-3.78h23.78c-1.75-8.16-2.77-15.9-5.2-23.17-1.83-5.47-7.47-5.93-11.22-1.47a19.08,19.08,0,0,0-3.88,7.19C643.13,148.41,642.27,154.19,641.11,160.22Z"/><path class="cls-9" d="M1331.3,164.2h-44.74c1.2,8.13,1.25,15.93,3.63,23,5.24,15.44,23.81,18.2,34.76,5.81,1.31-1.49,3.3-2.38,5-3.54-.3,2.06-.14,4.32-1,6.14-7.11,15.61-21.46,23.23-38.29,20.54-17.62-2.81-28.92-14.63-30.43-33.1a92.62,92.62,0,0,1,.91-23.76c3.12-17.48,17.24-29.14,35-30a55.31,55.31,0,0,1,11.73.37C1324.46,132.47,1333,145,1331.3,164.2ZM1310,160.3c-1.07-7.1-1.76-13.83-3.22-20.38-.75-3.39-2.67-7.68-6.89-6.89-3,.56-6.86,3.25-7.9,5.93-2.59,6.65-3.77,13.84-5.66,21.34Z"/><path class="cls-3" d="M1618.18,134.23c-4.49-2-9.92,1.66-13.4-2.29.1-.54.21-1.09.31-1.63h13.06V110.08l26.71-5.93v25.92h17.25l.75,1.46c-1,.7-2,2-3.08,2-4.71.22-9.45.09-14.63.09-.11,1.65-.29,3-.29,4.42q0,29.85,0,59.7c0,3.26-.33,7.48,3.67,8,2.92.39,6.18-1.65,9.26-2.71.54-.19.82-1.07,1.36-1.36a32.43,32.43,0,0,1,3.34-1.36c-.13,1.25.12,2.7-.43,3.72-5.36,10-16,14.4-28.06,11.88-8.92-1.87-13.64-6.66-15.08-15.64a59.64,59.64,0,0,1-.7-9.25c-.07-17.45,0-34.91,0-52.36Z"/><path class="cls-10" d="M963.26,215.22H917.8c-.27-.38-.53-.77-.79-1.15,1-.81,2-2.14,3.14-2.33,4.31-.68,6.2-3.32,6.55-7.31.28-3.23.45-6.49.46-9.73,0-15.15.06-30.3,0-45.45a47.54,47.54,0,0,0-.81-8.24c-.66-3.57-2.41-6.26-6.37-7.17-1.18-.27-2.08-1.74-3.85-3.32l37.73-1.89v4.58q0,32.5,0,65a44.54,44.54,0,0,0,.35,6.33c.55,3.89,2.39,6.61,6.72,7.24,1.13.16,2.08,1.5,3.12,2.29Z"/><path class="cls-11" d="M939.42,115.53c-11.6,0-17.24-5.51-16.08-15.63.85-7.45,7.24-11.19,18.47-10.81,8.34.28,13.82,4.82,14.15,11.73C956.44,110.8,951.09,115.55,939.42,115.53Z"/><path class="cls-12" d="M154,145.65c8.64-11.11,20.05-15.07,32.4-11.74,6.65,1.79,11.16,5.86,11.77,12.76.77,8.58.85,17.23,1,25.85.16,8.15.08,16.3,0,24.46,0,5.33.87,9.85,7.49,10.51.62.06,1.12,1.38,2.16,2.74H168.61c.58-1.17.84-2.58,1.43-2.73,4.06-1,4.78-4.06,4.79-7.52.07-16.95.14-33.9.09-50.86,0-3.7-.76-7.34-5-8.59s-8.19.05-10.41,3.53-4.24,7.56-4.39,11.46c-.53,13.51-.23,27.06-.2,40.59,0,5.12-.26,10.47,6.79,11.58.37.06.56,1.28,1,2.44H123.86c1.09-1.29,1.6-2.51,2.45-2.81,3.41-1.2,4.24-3.87,4.25-7,.05-17.44.18-34.89,0-52.34-.09-7.26-5.35-10-11.8-6.51a12.2,12.2,0,0,0-6.82,11.11q-.17,24,0,47.93c0,3,.83,5.81,4.4,6.83.75.21,1.25,1.29,2.59,2.76h-40l-.54-1c1.06-.63,2-1.59,3.18-1.83,4-.87,5.89-3.39,5.9-7.28,0-17,.09-33.92-.05-50.87,0-5.37-2.59-9-8.58-9.14v-6h32.77v10.77c5.94-8.39,13.16-11.7,22.14-11.7C142.89,133.08,150.59,135.19,154,145.65Z"/><path class="cls-12" d="M254.33,208.63c0,5-.12,9.37,0,13.76.24,7.33,2.46,9.8,9.62,11.32a22.47,22.47,0,0,1,3.71,1.49l-.48,1.71H243.8c-6.37,0-12.75.07-19.12-.06-1,0-1.91-.95-2.87-1.46.79-.55,1.51-1.43,2.36-1.6,3.79-.76,5.58-3.08,5.89-6.77.12-1.46.37-2.91.37-4.37q0-36,0-71.9a45.62,45.62,0,0,0-.46-5.34c-.48-4-2-7.2-6.44-8.17-.71-.15-1.23-1.09-1.84-1.67.79-.54,1.58-1.53,2.39-1.54,9.91-.11,19.83-.07,30.12-.07v9.19c1.19-1,1.78-1.33,2.25-1.82,13.45-14.15,36-10.49,43.07,7.66a55.93,55.93,0,0,1-1.88,46c-6.79,13.9-23.41,20-39,15.13C257.38,209.77,256.18,209.29,254.33,208.63Zm0-31.8v22.5c0,6.8,3.32,9.39,10.13,7.78,7.09-1.68,10.43-7.28,11.08-13.49a344.08,344.08,0,0,0,1.52-35.47c0-4.24-1.54-8.65-3.17-12.67-2.09-5.15-6.65-6.64-11.74-4.43-4.91,2.12-7.79,5.81-7.81,11.33C254.29,160.53,254.32,168.68,254.32,176.83Z"/><path class="cls-12" d="M50.06,137.06c0,19.67-.12,38.57.14,57.46,0,2.54,1.67,6.91,3.15,7.17,2.68.48,5.83-1.4,8.71-2.5a22.74,22.74,0,0,0,3.72-2.25c-.28,1.54-.12,3.34-.88,4.57C58.6,211.71,44,215,33.85,208.65c-5.2-3.26-7.24-8.27-7.34-14.09-.28-17.09-.39-34.19-.56-51.28,0-1.92,0-3.83,0-6.22-3.5,0-6.57.09-9.63-.07-.71,0-1.38-.9-2.06-1.38.67-.5,1.32-1.39,2-1.42,3.06-.16,6.13-.07,9.66-.07V116.47l23.92-5.42v23.06c4.63,0,9-.07,13.29.06.91,0,1.79.77,2.69,1.19-.9.57-1.79,1.59-2.71,1.63C58.92,137.16,54.71,137.06,50.06,137.06Z"/><path class="cls-13" d="M254.32,176.83c0-8.15,0-16.3,0-24.45,0-5.52,2.9-9.21,7.81-11.33,5.09-2.21,9.65-.72,11.74,4.43,1.63,4,3.17,8.43,3.17,12.67a344.08,344.08,0,0,1-1.52,35.47c-.65,6.21-4,11.81-11.08,13.49-6.81,1.61-10.13-1-10.13-7.78Z"/></g></g></svg>