<svg xmlns="http://www.w3.org/2000/svg" viewBox="0 0 1808.3 336.79"><defs><style>.cls-1{fill:#fe9267;}.cls-2{fill:#fe9167;}.cls-3{fill:#fe946a;}.cls-4,.cls-6{fill:#fff;}.cls-5{fill:#fe9268;}.cls-6{stroke:#fff;stroke-miterlimit:10;}.cls-7{fill:#fe9369;}</style></defs><g id="Layer_2" data-name="Layer 2"><g id="Layer_1-2" data-name="Layer 1"><path class="cls-1" d="M298.74,0c9.33,3,18.38,6.49,25.37,13.88,8.6,9.11,13.39,19.87,13.4,32.31q.19,121.82,0,243.63a47.07,47.07,0,0,1-47,46.92q-121.84.11-243.71,0C25.21,336.74,7,322.4,1.16,301.14.87,300.08.39,299.06,0,298V39.87C3,27.05,8.5,15.58,20,8.5,26.13,4.77,33.29,2.78,40,0ZM165.46,214a8.21,8.21,0,0,0-.15-1.78c-.12-.28-.38-.66-.63-.71-6.25-1.12-7-5.67-7-10.85.06-14.28-.4-28.58.28-42.83.19-4.18,2.92-8.63,5.55-12.18,2.19-3,6.56-4.48,9.85-2.09a11.7,11.7,0,0,1,4.41,8c.37,17.42.17,34.86.14,52.29,0,3.4-1,6.18-4.64,7.4-.67.23-1,1.53-1.9,3.08,13.31,0,25.61,0,37.9,0,.79,0,1.58-.73,2.37-1.13-.38-.62-.69-1.73-1.14-1.78-8.33-1.09-7.71-7.3-7.73-13.19,0-14.44.2-28.89-.19-43.33-.35-13.39-6.76-19.09-20.09-19.31-10.47-.17-19.37,2.59-25.1,12.16-11.69-16.34-27.74-16.91-43.76-1.16V136.44H80.25v5.82C86,143.07,89,146.38,89,152q.09,25.67,0,51.31c0,4.18-2,6.84-6.28,7.74-1,.22-1.91,1.25-2.86,1.91l.53.89h40.26c-1-1.38-1.44-2.46-2.1-2.66C114.77,210,114,207,114,203.76c-.09-16.1-.13-32.21,0-48.31a12.49,12.49,0,0,1,6.92-11.34c6.45-3.52,11.94-.61,12,6.7.19,17.6.08,35.2.06,52.8,0,3.35-.84,6.21-4.51,7.51-.75.27-1.19,1.43-2.27,2.83Zm93.79-1.29c1.48.48,2.72.89,4,1.28,19.19,6,38.14-4.18,43.21-23.56a66,66,0,0,0,.17-34.45c-6-21.88-26.7-24.49-40.58-16.32-2.43,1.43-4.42,3.6-7.39,6.08v-9.27H240.28c-4,0-8,0-12,.07a7.25,7.25,0,0,0-2.45,1.09,20.29,20.29,0,0,0,1.92,2.28c1.78,1.58,4.49,2.71,5.29,4.65a26.4,26.4,0,0,1,1.54,9.72c.12,23.74.08,47.48,0,71.22,0,2-.36,3.94-.53,5.92a6.72,6.72,0,0,1-5.68,6.61c-1,.24-1.9,1.23-4,2.64h47.81l.29-1.45a34.36,34.36,0,0,0-4.92-1.59c-5.13-.86-8.17-3.66-8.37-8.91S259.25,218.41,259.25,212.66Zm-233-73.18c0,2.59,0,4.54,0,6.49.23,17.4.42,34.81.72,52.21.1,5.56,1.95,10.45,6.68,13.79,10.27,7.25,27.11,3.37,33-7.64.54-1,.39-2.36.57-3.55-1.2.49-2.38,1-3.59,1.46-3.06,1.18-6.29,3.61-9.15,3.23-4.09-.55-3.53-5-3.54-8.25q-.09-26.9,0-53.77c0-1.25.27-2.5.5-4.54H67l0-1.87H51v-24l-24.86,5.49v17.18c-3.95,2.13-8.66-1-11.78,2.14l.2,1.6Z"/><path class="cls-2" d="M1094.51,35.88H391.19c-7.17,0-9.86-1.34-9.43-5.13.65-5.89,5.37-4.82,9.23-4.82q704.07,0,1408.13,0c3.88,0,9-1,9.08,4.87s-5,5.07-8.88,5.07Z"/><path class="cls-2" d="M1095,303h703.31c1.5,0,3,0,4.5,0,3.34.07,5.54,1.66,5.46,5.09s-2.38,4.87-5.69,4.87c-1.17,0-2.33,0-3.5,0Q1095,313,391,313c-3.87,0-8.58,1.06-9.22-4.84-.41-3.77,2.28-5.11,9.45-5.11Z"/><path class="cls-3" d="M844.88,176.72c7-18.27,13.67-35.59,20.32-52.91,2.38-6.19,4.83-12.35,7.06-18.6.9-2.51,2.07-3.68,5-3.63,11.49.18,23,0,34.46.15,1.14,0,2.28,1.06,3.42,1.63-1.07.7-2.07,1.83-3.22,2-6.71,1.08-8.68,2.86-8.71,9.75q-.16,45.33,0,90.65c0,7,1.81,8.52,9.15,9.83,1,.18,1.84,1.27,2.76,1.93-1,.58-1.92,1.66-2.89,1.67q-25,.15-49.93,0c-1,0-2.06-1-3.09-1.5,1-.73,2-1.94,3.12-2.11,8.08-1.19,9.88-2.66,9.91-10.13.13-28.06.07-56.12.06-84.18a9.87,9.87,0,0,0-.61-1.79c-4,10.18-7.75,19.64-11.45,29.12C851.5,171,842.81,193.44,834,215.81c-.52,1.33-2,2.29-3,3.43-1-1.15-2.37-2.13-2.95-3.46q-20.55-47.22-41-94.5c-.62-1.45-1.43-2.82-2.71-5.32-.22,2-.37,2.74-.37,3.47q.06,39.85.17,79.7a30.31,30.31,0,0,0,.38,5c1.39,8.06,3.93,10.33,12,11.47,1.27.17,2.4,1.41,3.59,2.16-1.18.52-2.36,1.49-3.55,1.51q-13,.19-26,0c-1.06,0-2.11-.93-3.17-1.43,1-.78,1.92-2.13,3-2.26,4.51-.54,7-3.26,7.71-7.31a68.18,68.18,0,0,0,1.21-12.34q.12-40.09-.06-80.19c0-7.85-1.37-9-9-10.35-1-.18-1.9-1.22-2.85-1.87,1-.6,1.9-1.72,2.86-1.73,13.15-.12,26.3-.2,39.45.08,1.48,0,3.6,2,4.29,3.58C824.34,128.8,834.38,152.28,844.88,176.72Z"/><path class="cls-4" d="M1706.77,91l36.59-1.88V145c10-13.75,22.72-15.13,36.68-12.52a14.52,14.52,0,0,1,11.83,10.21,46.14,46.14,0,0,1,2.43,13.06c.28,16.27.11,32.54.11,48.81,0,7.44.61,8.26,7.9,10.86l3.25,1.16-1.37,2h-46.68c1.81-1.58,2.68-2.95,3.82-3.24,3.81-1,5.05-3.66,5.07-7,.07-20.26.11-40.51,0-60.76,0-6.23-6-9.62-12.14-7.48-7.52,2.61-10.6,8.36-10.71,15.64q-.39,24.65,0,49.31c.07,4.56.6,9.51,6.88,10.47.8.13,1.42,1.43,2.81,2.93a33.76,33.76,0,0,1-4.56.76c-12.64,0-25.29.08-37.94-.05-1.38,0-2.74-1-4.11-1.6,1.15-.8,2.2-1.94,3.48-2.33,4.65-1.42,6.31-4,6.34-11,.06-15.11,0-30.22,0-45.33,0-16.6.06-33.2-.06-49.8,0-2.94-.17-6.14-1.37-8.72-1-2.28-3.35-4.87-5.61-5.5C1705.89,94,1706.22,92.49,1706.77,91Z"/><path class="cls-4" d="M547.42,145.08c9.64-13.46,22.06-15,35.71-12.78,7.94,1.29,12.17,6.38,14,13.72a48.33,48.33,0,0,1,1.32,10.78c.14,16.27.07,32.54.06,48.81,0,5.15,1.38,9.12,7.42,9.86,1,.12,1.82,1.56,3.82,3.41H563l-.65-1c1-.87,1.88-2.22,3-2.52,3.8-1,5-3.67,5.05-7,.08-20.25.12-40.5,0-60.76,0-6.24-6-9.53-12.16-7.49-7.45,2.45-10.52,8.07-10.66,15.13-.31,16.76-.25,33.54,0,50.3.07,4.39.79,9.15,6.82,10,.8.12,1.44,1.41,2.87,2.91a33.42,33.42,0,0,1-4.56.78c-12.65,0-25.3.08-37.95-.05-1.38,0-2.75-1-4.13-1.57,1.15-.81,2.19-2,3.47-2.35,4.67-1.42,6.32-3.93,6.36-11,.07-14.11,0-28.23,0-42.34,0-17.6.05-35.19,0-52.79,0-2.78,0-5.9-1.23-8.23-1.3-2.49-4.11-4.17-6.14-6.3A40.07,40.07,0,0,1,510.31,91l37.11-1.91Z"/><path class="cls-5" d="M1055.09,219.4v-8.85c-.51,0-1-.11-1,0-9.71,15.82-37.72,11.13-46.72-3.38-6.73-10.83-8-22.7-7.68-34.88.28-9.68,2.21-19.07,8.23-27.17,10-13.4,29.86-17.82,44.78-9.84a6.68,6.68,0,0,0,1.39.51c0-11.48.2-22.85-.12-34.21-.1-3.66-2.42-6.33-6.5-7.19-1.15-.24-2-1.92-3.89-3.9,7.93,0,14,.25,20.11-.07s11.84-1.21,18.4-1.92v6.23c0,35.52-.07,71.05.11,106.58a29.35,29.35,0,0,0,2.52,10.93c.65,1.54,3.46,2.12,5.19,3.28a13.38,13.38,0,0,1,2.1,2.15c-.82.57-1.61,1.59-2.45,1.62-4,.18-8,.09-12,.09Zm-.14-47.46c0-8.64-.33-17.28.12-25.89.28-5.29-2.25-7.53-6.69-8.84-4.62-1.35-9-.53-11.71,3.26-2.79,4-5.71,8.58-6.29,13.21a250.45,250.45,0,0,0-1.83,33.65c.06,5.82,1.7,11.83,3.68,17.38,2.71,7.59,9.77,9.5,16.65,5.36,4.28-2.58,6.06-6.42,6.06-11.24Q1055,185.38,1055,171.94Z"/><path class="cls-5" d="M1165.15,135.82c0-10.91.12-21.51-.05-32.11-.07-4.66-1.79-8.35-7.14-9.38-1-.19-1.64-2.13-2.52-3.35L1193,89.11v5.5c0,35.53,0,71.06.06,106.58a22.62,22.62,0,0,0,1.57,9.19c1,2.08,3.65,3.38,5.58,5,.88.74,1.8,1.44,2.71,2.16-1.11.61-2.2,1.71-3.33,1.76-5,.19-10,.08-15,.08h-18.49v-9.57c-19.85,19.24-47,10.75-53.61-16.19a70.86,70.86,0,0,1,.42-36.37,35.41,35.41,0,0,1,51-21.8A6.07,6.07,0,0,0,1165.15,135.82Zm.7,36.29c0-9.13.08-18.26-.07-27.39,0-1.66-.49-3.77-1.58-4.87-4.35-4.38-12-4.46-16.19.13a24.57,24.57,0,0,0-5.75,9.7,100.94,100.94,0,0,0-.15,52.58c1.92,7.2,6.9,10.7,12.42,9.83,7-1.1,11.25-6.12,11.3-13.59C1165.9,189.71,1165.85,180.91,1165.85,172.11Z"/><path class="cls-6" d="M1425.22,219.68c-1.07-3.07-.25-4.33,3-4.45,6-.21,8.44-2.95,8.45-9.09q0-45.57,0-91.13c0-6.43-2.25-8.67-8.73-9.45-1.11-.14-2.07-1.38-3.1-2.12,1-.59,2-1.69,3-1.69,20.13-.1,40.29-.67,60.39.17,11.45.48,22.37,4,31,12.73,11,11.13,8.57,32.22-.15,42-10.19,11.38-23.32,15.11-37.84,15.82-4.28.21-10.42-1.25-12.37,1-2.3,2.62-1.11,8.4-1.2,12.81-.12,6-.08,11.95,0,17.93.08,7.85,3.42,10.93,11.26,11.25,2.19.09,5.7-2.1,6.28,2.17,0,.29-4.08,1.61-6.26,1.63-15.48.15-31,.06-46.42.1C1430.26,219.3,1428,219.53,1425.22,219.68Zm42.48-80.63c0,8.45.09,16.9,0,25.34,0,2.92.81,4,3.92,4.15,13.48.87,19.86-4.87,22-18.08a118.31,118.31,0,0,0,.93-24.68c-.35-6.55-2.12-13.06-7.76-17.64-4.72-3.84-10.12-3.17-15.11-1.7-4.51,1.33-3.87,6-3.89,9.74C1467.67,123.8,1467.7,131.42,1467.7,139.05Z"/><path class="cls-4" d="M455.61,106.05v6.18c0,27.89,0,55.78,0,83.67a67.69,67.69,0,0,0,.93,10.33c1.15,7.3,3.32,8.88,11,9.13,2.43.08,5.84-1.44,7,3.35H405.68c1.75-1.64,2.54-2.65,3.57-3.25a5,5,0,0,1,2.46-.14c12.37.44,13.52-4.3,13.79-14.43.42-15.43.11-30.88.11-46.31V106.53c-8.16-2-16.5.55-20.65,7.93-4.73,8.41-8,17.64-12,26.47a19.2,19.2,0,0,1-2.6,3.44c-.57-1.36-1.58-2.69-1.64-4.07-.45-11.24-.63-22.5-1.11-33.74-.15-3.49.59-5,4.58-5q48.42.23,96.85,0c3.4,0,4.73.9,4.58,4.47-.49,11.74-.68,23.49-1.12,35.23,0,1-1.07,2-1.65,3.07a14.07,14.07,0,0,1-2.42-3c-3.71-8.62-6.51-17.75-11.17-25.82C473,108.17,465.62,104.43,455.61,106.05Z"/><path class="cls-4" d="M1624.3,211.19c-3.43,6.5-8.88,7.21-13.71,7.93-13.11,2-19.36-1-24-11a58.5,58.5,0,0,0-4.66,4.39c-7.49,8.7-24.87,8.5-32.42,3.67-8.84-5.66-12.61-24.74,0-32.48,7.82-4.78,16.8-7.74,25.4-11.17,10.28-4.09,11.75-5.77,11.57-16.78-.08-4.59-.07-9.41-1.43-13.7-2.34-7.32-13.94-9.42-19.51-3.75,1.65,1.56,3.38,3.06,5,4.7,6,6.34,3.43,17.49-4.76,20.55-7.66,2.87-15,.55-18-5.7-3.75-7.76-1.34-15.81,6.86-20.2,14.68-7.87,30.32-8.24,45.85-3.39,9,2.81,13,10.33,13,19.67.08,16.61,0,33.22,0,49.83a33.8,33.8,0,0,0,0,3.49c.63,5.69,1.92,6.47,7.19,4.5A26.74,26.74,0,0,1,1624.3,211.19Zm-37.71-40.71c-2.95,2.48-5.13,4.22-7.22,6.07s-4.19,3.78-6.17,5.78c-5,5.08-6.61,15.58-2.26,21,1.75,2.2,6,3.64,8.93,3.4,3.32-.28,6.92-2.12,6.8-7.08C1586.42,190.27,1586.59,180.84,1586.59,170.48Z"/><path class="cls-1" d="M1218.3,91,1256,89.19V94.6q0,51,0,102c0,3.13.45,6.27.5,9.4.09,5.23,1.6,9.11,7.7,9.64.92.08,1.71,1.56,3.48,3.28-3,.16-4.4.31-5.86.31-13.13,0-26.27,0-39.41-.06-1.15,0-2.3-1-3.45-1.6,1-.73,2-1.91,3.18-2.11,5.58-1,6.55-5.1,6.68-9.6.19-6.3.05-12.61.05-18.91q0-39.08,0-78.14a45.82,45.82,0,0,0-.75-7.38c-.64-3.75-2.56-6.26-6.64-7.07C1220.34,94.17,1219.52,92.34,1218.3,91Z"/><path class="cls-3" d="M1355.18,167c-1.54.06-3.17.19-4.8.2q-14.73,0-29.47,0c-10.74,0-10.83,0-9.94,10.86a52.65,52.65,0,0,0,1.9,10.75c2.28,7.6,6.68,13.53,15.07,14.89a22.58,22.58,0,0,0,20.79-7.06c.57-.59.92-1.45,1.58-1.91a34.49,34.49,0,0,1,3.53-1.95c.14,1.33.8,2.87.34,3.94-4.75,11.23-12.08,20.22-24.56,22.75-16.51,3.34-34.14-1.05-42-17.83-3.16-6.69-4.64-14.58-5.09-22-.82-13.49,1.3-26.55,11.54-36.82,11.09-11.14,32.27-14.86,46.49-8.16C1351.29,139.67,1357.64,153.48,1355.18,167ZM1334,163.25c-1.37-7.82-2.16-15-4.1-21.94-.67-2.41-4.06-5.45-6.39-5.61s-5.87,2.29-7.36,4.57c-4.43,6.84-4.94,14.79-5.2,23Z"/><path class="cls-4" d="M676,167.43c-6.16,0-12.32-.11-18.47.08-1.35.05-3.79,1.11-3.83,1.8-.56,10-.43,20.13,6.56,28.25,8.34,9.69,23.94,8.66,31.88-1.57,1-1.3,2.84-2,4.3-2.93-.08,1.84.44,4-.32,5.49-9.15,17.86-23.23,25.71-44.94,20.11-15.78-4.06-22.9-15.67-25.41-30.43-2-11.61-1.7-23.32,3.46-34.42,5.58-12,14.7-19.16,27.88-21.32,8.82-1.44,17.4-1.7,25.82,2,10.08,4.47,18.38,20.73,15.28,30.87-.29,1-2.43,1.9-3.75,1.94C688.28,167.54,682.12,167.43,676,167.43Zm-11.56-4a51.08,51.08,0,0,0,7.93-.13c1.14-.18,3-1.89,2.91-2.71-.85-7-1.36-14.08-3.41-20.72-1.81-5.85-7.91-6.58-11.53-1.46a32,32,0,0,0-5.58,13.4C653,164.29,650.14,163.56,664.41,163.45Z"/><path class="cls-4" d="M1632.66,132.56c4.63,0,7.9-.12,11.15,0,2.81.14,3.86-.95,3.77-3.75-.15-4.81,0-9.63-.06-14.44,0-2.28.41-3.49,3.18-3.87,7.78-1.06,15.49-2.6,23.82-4.05V120c0,12.53,0,12.53,12.32,12.57a10.1,10.1,0,0,1,3,.09,10.55,10.55,0,0,1,2.54,1.7c-.87.73-1.7,2-2.61,2.08-4,.24-8-.12-12,.27-1.18.12-3.11,2-3.12,3.05-.18,21.08-.25,42.17,0,63.24,0,2.3,2,5.72,4,6.5s5.1-.94,7.7-1.61c.28-.07.44-.51.72-.67,1.81-1.05,3.64-2.07,5.46-3.1-.68,2.2-.81,4.82-2.12,6.53-9.15,11.86-28.63,13.81-37.55,3.08-3.26-3.93-5-10.19-5.14-15.46-.6-18.9-.35-37.84-.15-56.76,0-4-1.14-5.17-5.08-5.08C1639.55,136.49,1635.64,138.12,1632.66,132.56Z"/><path class="cls-1" d="M935.14,132.34c6,0,12,.25,17.91-.07,5.78-.31,11.53-1.2,18.09-1.92v5.56q0,33.12,0,66.22a53.19,53.19,0,0,0,.48,6.43c.5,3.89,2.52,6.28,6.61,7,1.16.2,2.14,1.49,3.21,2.28l-.81,1.21H934.43l-.72-1.36c1.14-.76,2.2-1.94,3.45-2.19,3.83-.76,5.8-3,6.17-6.74.27-2.8.67-5.6.68-8.4q.09-23.65,0-47.3a59.07,59.07,0,0,0-.87-9.38c-.61-3.66-2.4-6.36-6.43-7.35-1.19-.29-2-2.05-3-3.14Z"/><path class="cls-7" d="M956.86,117.9a57.12,57.12,0,0,1-7.3-1.11c-6.65-1.85-9.52-5.81-9.52-12.65s2.84-11,9.57-12.55A35.46,35.46,0,0,1,961.89,91c8,1.11,11.72,6.27,11.37,14.63-.26,6.37-5.12,11-12.38,11.86a35,35,0,0,1-4,0Z"/><path class="cls-4" d="M165.46,214H126.17c1.08-1.4,1.52-2.56,2.27-2.83,3.67-1.3,4.5-4.16,4.51-7.51,0-17.6.13-35.2-.06-52.8-.08-7.31-5.57-10.22-12-6.7A12.49,12.49,0,0,0,114,155.45c-.12,16.1-.08,32.21,0,48.31,0,3.26.81,6.28,4.6,7.43.66.2,1,1.28,2.1,2.66H80.4l-.53-.89c.95-.66,1.82-1.69,2.86-1.91,4.29-.9,6.27-3.56,6.28-7.74q0-25.65,0-51.31c0-5.62-3-8.93-8.73-9.74v-5.82h33.43V146.5c16-15.75,32.07-15.18,43.76,1.16,5.73-9.57,14.63-12.33,25.1-12.16,13.33.22,19.74,5.92,20.09,19.31.39,14.44.16,28.89.19,43.33,0,5.89-.6,12.1,7.73,13.19.45,0,.76,1.16,1.14,1.78-.79.4-1.58,1.13-2.37,1.13-12.29.07-24.59,0-37.9,0,.92-1.55,1.23-2.85,1.9-3.08,3.69-1.22,4.64-4,4.64-7.4,0-17.43.23-34.87-.14-52.29a11.7,11.7,0,0,0-4.41-8c-3.29-2.39-7.66-.88-9.85,2.09-2.63,3.55-5.36,8-5.55,12.18-.68,14.25-.22,28.55-.28,42.83,0,5.18.7,9.73,7,10.85.25,0,.51.43.63.71A8.21,8.21,0,0,1,165.46,214Z"/><path class="cls-4" d="M259.25,212.66c0,5.75-.14,10.89,0,16s3.24,8.05,8.37,8.91a34.36,34.36,0,0,1,4.92,1.59l-.29,1.45H224.48c2.05-1.41,2.91-2.4,4-2.64a6.72,6.72,0,0,0,5.68-6.61c.17-2,.53-4,.53-5.92,0-23.74.08-47.48,0-71.22a26.4,26.4,0,0,0-1.54-9.72c-.8-1.94-3.51-3.07-5.29-4.65a20.29,20.29,0,0,1-1.92-2.28,7.25,7.25,0,0,1,2.45-1.09c4-.12,8-.06,12-.07h18.35v9.27c3-2.48,5-4.65,7.39-6.08,13.88-8.17,34.62-5.56,40.58,16.32a66,66,0,0,1-.17,34.45c-5.07,19.38-24,29.57-43.21,23.56C262,213.55,260.73,213.14,259.25,212.66Zm-.36-32.76v23.4c0,6.28,2.45,8.5,8.76,7.86,4.89-.5,8.64-3.1,10.38-7.51,1.87-4.72,3.61-9.72,4.08-14.72,1.22-13,2-26.2-2.36-38.91-2.75-8-9.89-10.06-16.06-4.35a16.28,16.28,0,0,0-4.59,9.85C258.44,163.6,258.89,171.77,258.89,179.9Z"/><path class="cls-4" d="M26.26,139.48H14.56l-.2-1.6c3.12-3.14,7.83,0,11.78-2.14V118.56L51,113.07v24H67.06l0,1.87H51.48c-.23,2-.5,3.29-.5,4.54q0,26.88,0,53.77c0,3.25-.55,7.7,3.54,8.25,2.86.38,6.09-2.05,9.15-3.23,1.21-.47,2.39-1,3.59-1.46-.18,1.19,0,2.55-.57,3.55-5.93,11-22.77,14.89-33,7.64-4.73-3.34-6.58-8.23-6.68-13.79-.3-17.4-.49-34.81-.72-52.21C26.24,144,26.26,142.07,26.26,139.48Z"/><path class="cls-7" d="M258.89,179.9c0-8.13-.45-16.3.21-24.38a16.28,16.28,0,0,1,4.59-9.85c6.17-5.71,13.31-3.6,16.06,4.35,4.39,12.71,3.58,25.87,2.36,38.91-.47,5-2.21,10-4.08,14.72-1.74,4.41-5.49,7-10.38,7.51-6.31.64-8.76-1.58-8.76-7.86Z"/></g></g></svg>